# xmcd
#
# Track frame offsets: 
#        150
#        10800
#        23162
#        37577
#        53972
#        67275
#        85600
#        97682
#        109697
#        124702
#        135220
#        147112
#        155977
#        167560
#        184567
#        195727
#        211722
#        223572
#        233797
#        244642
#        259277
#        273500
#        286412
#        299365
#
# Disc length: 4140 seconds
#
# Revision: 0
# Processed by: cddbd v1.5.2PL0 Copyright (c) Steve Scherf et al.
# Submitted via: ExactAudioCopyFreeDBPlugin 1.0
#
DISCID=4e102a18
DTITLE=Jimmy Slivensky and The Hibbards - Jimmy Slivensky and The Hibbards
DYEAR=1993
DGENRE=Blues
TTITLE0=I Think You Know
TTITLE1=Live Your Life
TTITLE2=Stray Johnny Blues
TTITLE3=Sly Dog
TTITLE4=Dead In My Tracks
TTITLE5=C'mon Woman
TTITLE6=Hold Your Hand
TTITLE7=Dawn's Early Lite
TTITLE8=Miami In The Nite
TTITLE9=In My Dreams
TTITLE10=It's Over
TTITLE11=Time
TTITLE12=Jaimi
TTITLE13=Goin' To Frisco
TTITLE14=I Just Go Crazy
TTITLE15=I Don't Care
TTITLE16=I Need You So Bad
TTITLE17=Ain't Love Grand
TTITLE18=Jane
TTITLE19=What A Smile
TTITLE20=I Want You
TTITLE21=The Plow
TTITLE22=The Way That I Am
TTITLE23=Black Cat
EXTD=
EXTT0=
EXTT1=
EXTT2=
EXTT3=
EXTT4=
EXTT5=
EXTT6=
EXTT7=
EXTT8=
EXTT9=
EXTT10=
EXTT11=
EXTT12=
EXTT13=
EXTT14=
EXTT15=
EXTT16=
EXTT17=
EXTT18=
EXTT19=
EXTT20=
EXTT21=
EXTT22=
EXTT23=
PLAYORDER=
